<svg xmlns="http://www.w3.org/2000/svg" xmlns:xlink="http://www.w3.org/1999/xlink" width="500" height="500" viewBox="0 0 500 500">
	<defs>
	  <clipPath id="clip-Custom_Size_1">
		<rect width="500" height="500"/>
	  </clipPath>
	</defs>
	<g id="Custom_Size_1" data-name="Custom Size – 1" clip-path="url(#clip-Custom_Size_1)">
	  <g id="Group_2" data-name="Group 2" transform="translate(-193.169 -208.834)">
		<path id="Path_1" data-name="Path 1" d="M580.777,569.25l33.909,30.087c-40.644,47.027-92.892,70.829-156.173,70.829-58.637,0-108.567-19.737-149.788-59.8C268.082,570.31,247.763,519.8,247.763,460s20.319-109.726,60.962-149.786c41.221-40.059,91.151-60.38,149.788-60.38,62.119,0,113.789,22.643,154.432,68.507l-33.864,30.134c-16.261-19.069-35.272-32.933-56.978-41.783V486.346H496.536V621.1Q546.954,610.231,580.777,569.25Zm-237.74,9.1A150.247,150.247,0,0,0,396.5,614.04V486.346H370.929V319.387a159.623,159.623,0,0,0-27.892,22.829Q297.187,389.16,297.186,460c0,47.229,15.284,87.06,45.851,118.354Zm115.476,46.66a187.175,187.175,0,0,0,27.28-1.94V486.346H474.548V295.666c-5.236-.426-10.567-.677-16.035-.677a177.386,177.386,0,0,0-40.029,4.4V486.346H407.239v131.4a175.159,175.159,0,0,0,51.274,7.268Z" fill="#e2b461"/>
	  </g>
	</g>
  </svg>
  