<svg xmlns="http://www.w3.org/2000/svg" xmlns:xlink="http://www.w3.org/1999/xlink" width="500" height="500" viewBox="0 0 500 500">
	<defs>
	  <clipPath id="clip-Custom_Size_1">
		<rect width="500" height="500"/>
	  </clipPath>
	</defs>
	<g id="Custom_Size_1" data-name="Custom Size – 1" clip-path="url(#clip-Custom_Size_1)">
	  <path id="path22" d="M306.369,396.022c-25.585,0-46.277-21.764-46.277-48.629s20.691-48.675,46.277-48.675c25.542,0,46.234,21.809,46.234,48.675s-20.691,48.629-46.234,48.629M233.3,235.686,187.5,86.05,140.622,235.686l-2.318,8.173H56.783L143.413-.1h94.271l84.869,243.824-86.844.226ZM74.126,396.022c-25.542,0-46.277-21.764-46.277-48.629s20.734-48.675,46.277-48.675S120.4,320.527,120.4,347.393s-20.734,48.629-46.277,48.629" transform="translate(60.393 52.43)" fill="#3E4E63"/>
	</g>
  </svg>
  